<svg id="Layer_1" data-name="Layer 1" xmlns="http://www.w3.org/2000/svg" viewBox="0 0 34.54 40.3"><defs><style>.cls-1{fill:none;stroke:#231f20;stroke-miterlimit:10;}</style></defs><title>guitar</title><path class="cls-1" d="M18.61,44.25V40l-3.77-4.4L13.7,8.34s8.68-7.61,20.82,0L33.46,35.51,29.37,40l-0.13,4.21H18.61Z" transform="translate(-6.96 -4.45)"/><path class="cls-1" d="M-15.3,27.59" transform="translate(-6.96 -4.45)"/><line class="cls-1" x1="7.77" y1="28.67" x2="4.23" y2="28.67"/><line class="cls-1" x1="7.32" y1="17.79" x2="3.63" y2="17.79"/><line class="cls-1" x1="6.88" y1="7.09" x2="2.91" y2="7.09"/><line class="cls-1" x1="27.44" y1="7.09" x2="31.16" y2="7.09"/><line class="cls-1" x1="27.02" y1="17.79" x2="30.51" y2="17.79"/><line class="cls-1" x1="26.59" y1="28.67" x2="30.15" y2="28.67"/><ellipse class="cls-1" cx="1.91" cy="7.09" rx="1.41" ry="1.95"/><ellipse class="cls-1" cx="2.23" cy="17.99" rx="1.41" ry="1.95"/><ellipse class="cls-1" cx="2.91" cy="28.88" rx="1.41" ry="1.95"/><ellipse class="cls-1" cx="32.64" cy="7.09" rx="1.41" ry="1.95"/><ellipse class="cls-1" cx="32.09" cy="17.79" rx="1.41" ry="1.95"/><ellipse class="cls-1" cx="31.64" cy="28.88" rx="1.41" ry="1.95"/><circle class="cls-1" cx="12.72" cy="28.88" r="1.59"/><circle class="cls-1" cx="12.21" cy="17.99" r="1.56"/><circle class="cls-1" cx="21.51" cy="28.88" r="1.59"/><circle class="cls-1" cx="22.23" cy="18.07" r="1.59"/><circle class="cls-1" cx="22.37" cy="7.09" r="1.59"/><circle class="cls-1" cx="11.94" cy="7.09" r="1.59"/></svg>