<svg id="Layer_1" data-name="Layer 1" xmlns="http://www.w3.org/2000/svg" viewBox="0 0 18.11 19.71"><defs><style>.cls-1{fill:#fff;}.cls-2{fill:none;stroke:#231f20;stroke-miterlimit:10;}.cls-3{fill:#231f20;}</style></defs><title>metronome</title><path class="cls-1" d="M12,2.6h1.44a0.5,0.5,0,0,1,.47.32l6.67,17.71a0.5,0.5,0,0,1-.47.68H12" transform="translate(-3.01 -2.1)"/><path class="cls-2" d="M12,2.6h1.44a0.5,0.5,0,0,1,.47.32l6.67,17.71a0.5,0.5,0,0,1-.47.68H12" transform="translate(-3.01 -2.1)"/><path class="cls-1" d="M12.12,2.6H10.68a0.5,0.5,0,0,0-.47.32L3.54,20.63A0.5,0.5,0,0,0,4,21.3h8.11" transform="translate(-3.01 -2.1)"/><path class="cls-2" d="M12.12,2.6H10.68a0.5,0.5,0,0,0-.47.32L3.54,20.63A0.5,0.5,0,0,0,4,21.3h8.11" transform="translate(-3.01 -2.1)"/><line class="cls-2" x1="9.11" y1="19.21" x2="9.11" y2="10.49"/><circle class="cls-3" cx="9.17" cy="11.04" r="1.85"/></svg>