<?xml version="1.0" standalone="no"?>
<!DOCTYPE svg PUBLIC "-//W3C//DTD SVG 20010904//EN"
 "http://www.w3.org/TR/2001/REC-SVG-20010904/DTD/svg10.dtd">
<svg version="1.0" xmlns="http://www.w3.org/2000/svg"
 width="2432.000000pt" height="2432.000000pt" viewBox="0 0 2432.000000 2432.000000"
 preserveAspectRatio="xMidYMid meet">
<metadata>
Created by potrace 1.11, written by Peter Selinger 2001-2013
</metadata>
<g transform="translate(0.000000,2432.000000) scale(0.100000,-0.100000)"
fill="#000000" stroke="none">
<path d="M7810 19183 c0 -5004 0 -5081 20 -5250 102 -884 476 -1669 1106
-2322 622 -645 1452 -1137 2482 -1472 l102 -33 0 -3647 0 -3647 -77 -42 c-177
-95 -369 -264 -486 -428 -344 -480 -370 -1131 -66 -1629 436 -715 1377 -927
2074 -468 343 227 572 579 646 995 20 109 18 383 -4 497 -42 229 -142 456
-282 640 -104 137 -283 292 -444 384 l-91 52 0 3626 0 3627 77 23 c373 109
1007 393 1378 615 837 503 1449 1132 1824 1874 228 452 363 912 416 1424 13
130 15 743 15 5203 l0 5055 -630 0 -630 0 0 -5018 c0 -4347 -2 -5034 -15
-5142 -66 -564 -264 -1030 -629 -1480 -79 -98 -317 -336 -431 -431 -468 -391
-1105 -724 -1768 -924 l-149 -45 -66 15 c-198 46 -589 172 -812 263 -720 292
-1314 708 -1708 1196 -300 372 -476 771 -569 1288 -16 86 -17 486 -20 5186
l-3 5092 -630 0 -630 0 0 -5077z"/>
</g>
</svg>
